<svg id="Layer_1" data-name="Layer 1" xmlns="http://www.w3.org/2000/svg" viewBox="0 0 47.97 44.71"><defs><style>.cls-1,.cls-10,.cls-9{fill:#e8e3df;}.cls-2{fill:#a8a6a1;}.cls-3{fill:#bab6ad;}.cls-4{fill:#57585c;}.cls-5{fill:#343e85;}.cls-6{fill:#68696d;}.cls-7{fill:#d8d1bf;}.cls-8{fill:#0b0c24;}.cls-9{opacity:0.05;}.cls-10{opacity:0.1;}.cls-11{fill:#ffcc73;}.cls-12{fill:#ff6f69;}.cls-13{fill:#ffeead;}.cls-14{fill:#f24a41;}.cls-15{fill:#db2e2a;}.cls-16{fill:#c42626;}.cls-17{fill:#2f2933;}.cls-18{fill:#81ce61;}.cls-19{fill:#72af56;}.cls-20{fill:#fff;opacity:0.32;}</style></defs><g id="Marsmannetje"><path class="cls-1" d="M824.11,443H829a3.8,3.8,0,0,1,3.8,3.8v11a0,0,0,0,1,0,0H820.31a0,0,0,0,1,0,0v-11A3.8,3.8,0,0,1,824.11,443Z" transform="translate(-881.87 -199.01) rotate(-15.19)"/><rect class="cls-2" x="826.22" y="442.98" width="0.37" height="13.57" transform="translate(-881.72 -199.07) rotate(-15.19)"/><rect class="cls-3" x="822.09" y="456.29" width="12.52" height="1.26" transform="translate(-883.52 -198.31) rotate(-15.19)"/><rect class="cls-3" x="823.78" y="449.56" width="6.21" height="3.93" rx="1.19" transform="translate(-882.16 -198.89) rotate(-15.19)"/><path class="cls-4" d="M829,452.09h0a.37.37,0,0,1-.45-.25l-.39-1.45a.36.36,0,0,1,.26-.44h0a.37.37,0,0,1,.45.25l.39,1.45A.36.36,0,0,1,829,452.09Z" transform="translate(-792.73 -431.35)"/><path class="cls-4" d="M827.8,452.43h0a.36.36,0,0,1-.45-.25l-.39-1.45a.37.37,0,0,1,.25-.45h0a.37.37,0,0,1,.45.26l.39,1.44A.36.36,0,0,1,827.8,452.43Z" transform="translate(-792.73 -431.35)"/><path class="cls-4" d="M826.55,452.77h0a.36.36,0,0,1-.44-.26l-.4-1.44a.37.37,0,0,1,.26-.45h0a.36.36,0,0,1,.45.26l.39,1.44A.36.36,0,0,1,826.55,452.77Z" transform="translate(-792.73 -431.35)"/><path class="cls-4" d="M825.31,453.11h0a.37.37,0,0,1-.45-.26l-.39-1.44a.36.36,0,0,1,.26-.45h0a.36.36,0,0,1,.44.26l.4,1.44A.38.38,0,0,1,825.31,453.11Z" transform="translate(-792.73 -431.35)"/><path class="cls-4" d="M824.39,456.68l-2.45.66a.53.53,0,0,1-.65-.37.54.54,0,0,1,.38-.65l2.44-.66a1.3,1.3,0,0,0,.91-1.59.53.53,0,0,1,.37-.65.52.52,0,0,1,.65.37A2.36,2.36,0,0,1,824.39,456.68Z" transform="translate(-792.73 -431.35)"/><path class="cls-4" d="M834.06,454.05l-2.45.67a2.36,2.36,0,0,1-2.89-1.66.54.54,0,0,1,.38-.65.52.52,0,0,1,.64.37,1.32,1.32,0,0,0,1.6.92l2.44-.67a.54.54,0,0,1,.65.37A.52.52,0,0,1,834.06,454.05Z" transform="translate(-792.73 -431.35)"/><path class="cls-5" d="M831.51,447.72a1,1,0,1,1-2,.54,1,1,0,0,1,2-.54Z" transform="translate(-792.73 -431.35)"/><path class="cls-1" d="M836.6,454.35a1.89,1.89,0,0,1-2.32-1.33l-1.08-4a4.46,4.46,0,0,0-3.16-3.14,1.89,1.89,0,1,1,1-3.65,8.25,8.25,0,0,1,5.84,5.8l1.08,4A1.9,1.9,0,0,1,836.6,454.35Z" transform="translate(-792.73 -431.35)"/><path class="cls-6" d="M838,455.11l-.52-1.91a1.15,1.15,0,0,0-1.41-.81h0a1.14,1.14,0,0,0-.81,1.41l.52,1.92a.29.29,0,0,0,.37.21l1.63-.44A.31.31,0,0,0,838,455.11Z" transform="translate(-792.73 -431.35)"/><path class="cls-4" d="M836,456h0a.58.58,0,0,1-.71-.41l-.3-1.1a.58.58,0,0,1,.4-.7h0a.57.57,0,0,1,.71.4l.3,1.1A.59.59,0,0,1,836,456Z" transform="translate(-792.73 -431.35)"/><path class="cls-1" d="M816.45,455.77l-2.55.7a1.89,1.89,0,0,1-1-3.65l2.55-.7a2.56,2.56,0,0,0,1.76-1.64l1.62-4.68a1.89,1.89,0,0,1,3.58,1.24l-1.63,4.68A6.32,6.32,0,0,1,816.45,455.77Z" transform="translate(-792.73 -431.35)"/><ellipse class="cls-7" cx="824.16" cy="441.48" rx="6.89" ry="7.22" transform="translate(-879.62 -199.95) rotate(-15.19)"/><circle class="cls-1" cx="30.8" cy="7.83" r="7.83"/><path class="cls-8" d="M830.18,437.38s1.82,6.69-4.83,8.49c-6.12,1.67-8.47-4.88-8.47-4.88s-1.24-4.59,5.41-6.4S830.18,437.38,830.18,437.38Z" transform="translate(-792.73 -431.35)"/><ellipse class="cls-1" cx="830.09" cy="437.4" rx="1.05" ry="1.4" transform="translate(-878.35 -198.54) rotate(-15.19)"/><path class="cls-3" d="M830.59,437.26a.63.63,0,0,1-.32.82.64.64,0,0,1-.69-.54.63.63,0,0,1,.32-.81C830.18,436.65,830.49,436.89,830.59,437.26Z" transform="translate(-792.73 -431.35)"/><ellipse class="cls-1" cx="816.99" cy="440.96" rx="1.05" ry="1.4" transform="matrix(0.97, -0.26, 0.26, 0.97, -879.74, -201.85)"/><path class="cls-3" d="M817.5,440.82a.63.63,0,0,1-.33.81c-.28.08-.59-.16-.69-.53a.64.64,0,0,1,.32-.82A.66.66,0,0,1,817.5,440.82Z" transform="translate(-792.73 -431.35)"/><path class="cls-9" d="M822.6,435.76c-5.27,1.43-4.28,5.07-4.28,5.07a6.63,6.63,0,0,0,.52,1.07,7.5,7.5,0,0,0,5.87.6A8.33,8.33,0,0,0,829,440a6.82,6.82,0,0,0-.16-2S827.88,434.33,822.6,435.76Z" transform="translate(-792.73 -431.35)"/><path class="cls-10" d="M821.62,438.06a.88.88,0,1,1-1.08-.61A.87.87,0,0,1,821.62,438.06Z" transform="translate(-792.73 -431.35)"/><circle class="cls-10" cx="26.88" cy="8.69" r="0.69"/><path class="cls-1" d="M823.05,461.31c.32,1.18,3.29,1.41,6.63.5s5.78-2.6,5.46-3.78l-.58-2.14-12.09,3.28Z" transform="translate(-792.73 -431.35)"/><path class="cls-3" d="M825.5,469.89h4.42a0,0,0,0,1,0,0v3.31a0,0,0,0,1,0,0h-6.43a0,0,0,0,1,0,0v-1.3A2,2,0,0,1,825.5,469.89Z" transform="translate(-887.41 -198.23) rotate(-15.19)"/><path class="cls-1" d="M824,458.35h4.61a0,0,0,0,1,0,0v10.12a2.24,2.24,0,0,1-2.24,2.24h-1.81a.56.56,0,0,1-.56-.56v-11.8a0,0,0,0,1,0,0Z" transform="translate(-885.59 -198.58) rotate(-15.19)"/><circle class="cls-2" cx="36.19" cy="38.12" r="1.26"/><path class="cls-1" d="M829.62,469.28a.73.73,0,1,1-.89-.51A.72.72,0,0,1,829.62,469.28Z" transform="translate(-792.73 -431.35)"/><rect class="cls-2" x="823.81" y="472.33" width="6.43" height="0.83" transform="translate(-887.71 -198.11) rotate(-15.19)"/><rect class="cls-2" x="824.2" y="465.22" width="4.64" height="0.28" transform="translate(-885.8 -198.5) rotate(-15.19)"/><rect class="cls-3" x="823.33" y="464.07" width="1.98" height="3.77" rx="0.6" transform="translate(-886.03 -199.06) rotate(-15.19)"/><path class="cls-3" d="M833.95,467h6.43a0,0,0,0,1,0,0v3.31a0,0,0,0,1,0,0H836a2,2,0,0,1-2-2V467A0,0,0,0,1,833.95,467Z" transform="translate(975.16 270.3) rotate(164.81)"/><path class="cls-1" d="M832.21,456.28H834a2.24,2.24,0,0,1,2.24,2.24v10.12a0,0,0,0,1,0,0h-4.61a0,0,0,0,1,0,0v-11.8A.56.56,0,0,1,832.21,456.28Z" transform="translate(967.22 258.87) rotate(164.81)"/><circle class="cls-2" cx="41.47" cy="36.69" r="1.26"/><circle class="cls-1" cx="41.47" cy="36.69" r="0.73"/><rect class="cls-2" x="834.27" y="469.49" width="6.43" height="0.83" transform="translate(-886.6 -195.46) rotate(-15.19)"/><rect class="cls-2" x="831.87" y="463.14" width="4.64" height="0.28" transform="translate(967.9 260.41) rotate(164.81)"/><rect class="cls-3" x="835.41" y="460.79" width="1.98" height="3.77" rx="0.6" transform="translate(972.08 258.66) rotate(164.81)"/><path class="cls-6" d="M810.68,456.58l1.91-.52a1.15,1.15,0,0,0,.81-1.42h0a1.16,1.16,0,0,0-1.41-.81l-1.92.52a.31.31,0,0,0-.21.38l.44,1.63A.32.32,0,0,0,810.68,456.58Z" transform="translate(-792.73 -431.35)"/><rect class="cls-8" x="811.61" y="440.4" width="0.92" height="36.17" transform="translate(-884.5 -202.52) rotate(-15.19)"/><path class="cls-11" d="M809.85,452c-4.86-1-9.72,3.89-14.57,4.66-.85-3.22-1.7-6.56-2.55-10.08,4.86.95,9.71-3.9,14.57-4.67C808.15,445.17,809,448.52,809.85,452Z" transform="translate(-792.73 -431.35)"/><path class="cls-12" d="M809.06,451.79c-4.41-.87-8.82,3.53-13.23,4.24-.77-2.93-1.54-6-2.31-9.16,4.41.86,8.82-3.54,13.23-4.24C807.52,445.55,808.29,448.59,809.06,451.79Z" transform="translate(-792.73 -431.35)"/><path class="cls-13" d="M808.14,451.49c-3.89-.76-7.77,3.12-11.66,3.74-.68-2.58-1.36-5.25-2-8.07,3.89.76,7.77-3.12,11.66-3.73C806.78,446,807.46,448.68,808.14,451.49Z" transform="translate(-792.73 -431.35)"/><circle class="cls-14" cx="11.03" cy="18.73" r="0.77"/><path class="cls-15" d="M804.15,450.15a.21.21,0,0,1-.26-.15.21.21,0,0,1,.15-.25.21.21,0,1,1,.11.4Z" transform="translate(-792.73 -431.35)"/><path class="cls-16" d="M804.3,449.89a.25.25,0,0,0,0-.07.2.2,0,0,1-.15.18.22.22,0,0,1-.23-.08.19.19,0,0,0,0,.08.21.21,0,0,0,.26.15A.21.21,0,0,0,804.3,449.89Z" transform="translate(-792.73 -431.35)"/><path class="cls-15" d="M803.47,450a.17.17,0,0,1-.2-.12.16.16,0,0,1,.12-.2.18.18,0,0,1,.2.11A.18.18,0,0,1,803.47,450Z" transform="translate(-792.73 -431.35)"/><path class="cls-16" d="M803.59,449.77l0,0a.17.17,0,0,1-.12.14.16.16,0,0,1-.17-.06v.06a.17.17,0,0,0,.2.12A.18.18,0,0,0,803.59,449.77Z" transform="translate(-792.73 -431.35)"/><path class="cls-15" d="M803.68,450.63a.21.21,0,0,1-.24-.14.2.2,0,0,1,.38-.11A.2.2,0,0,1,803.68,450.63Z" transform="translate(-792.73 -431.35)"/><path class="cls-16" d="M803.82,450.38s0,0,0-.06a.19.19,0,0,1-.14.16.18.18,0,0,1-.21-.07.22.22,0,0,0,0,.08.21.21,0,0,0,.24.14A.2.2,0,0,0,803.82,450.38Z" transform="translate(-792.73 -431.35)"/><circle class="cls-14" cx="4.69" cy="16.84" r="0.8"/><path class="cls-15" d="M797.82,448.27a.22.22,0,0,1-.11-.43.22.22,0,0,1,.27.16A.23.23,0,0,1,797.82,448.27Z" transform="translate(-792.73 -431.35)"/><path class="cls-16" d="M798,448a.2.2,0,0,0,0-.08.22.22,0,0,1-.16.19.22.22,0,0,1-.23-.08.22.22,0,0,0,0,.08.21.21,0,0,0,.26.16A.23.23,0,0,0,798,448Z" transform="translate(-792.73 -431.35)"/><path class="cls-15" d="M797.12,448.08a.16.16,0,0,1-.2-.12.17.17,0,1,1,.32-.09A.17.17,0,0,1,797.12,448.08Z" transform="translate(-792.73 -431.35)"/><path class="cls-16" d="M797.24,447.87a.08.08,0,0,0,0-.05.18.18,0,0,1-.13.14.17.17,0,0,1-.18-.06.13.13,0,0,0,0,.06.16.16,0,0,0,.2.12A.17.17,0,0,0,797.24,447.87Z" transform="translate(-792.73 -431.35)"/><path class="cls-15" d="M797.34,448.76a.21.21,0,1,1-.1-.4.21.21,0,0,1,.25.14A.22.22,0,0,1,797.34,448.76Z" transform="translate(-792.73 -431.35)"/><path class="cls-16" d="M797.49,448.5a.21.21,0,0,0,0-.06.19.19,0,0,1-.15.17.2.2,0,0,1-.21-.08.21.21,0,0,0,0,.08.21.21,0,0,0,.25.15A.22.22,0,0,0,797.49,448.5Z" transform="translate(-792.73 -431.35)"/><circle class="cls-14" cx="7.6" cy="21.23" r="0.86"/><path class="cls-15" d="M800.76,452.66a.23.23,0,1,1-.13-.45.23.23,0,0,1,.13.45Z" transform="translate(-792.73 -431.35)"/><path class="cls-16" d="M800.92,452.37a.25.25,0,0,0,0-.07.22.22,0,0,1-.17.19.23.23,0,0,1-.25-.08.28.28,0,0,0,0,.09.23.23,0,0,0,.29.16A.24.24,0,0,0,800.92,452.37Z" transform="translate(-792.73 -431.35)"/><path class="cls-15" d="M800,452.47a.2.2,0,0,1-.22-.13.19.19,0,0,1,.13-.23.18.18,0,0,1,.22.13A.19.19,0,0,1,800,452.47Z" transform="translate(-792.73 -431.35)"/><path class="cls-16" d="M800.13,452.24s0,0,0-.06a.18.18,0,0,1-.13.15.17.17,0,0,1-.19-.06.08.08,0,0,0,0,.07.2.2,0,0,0,.22.13A.19.19,0,0,0,800.13,452.24Z" transform="translate(-792.73 -431.35)"/><path class="cls-15" d="M800.24,453.19A.22.22,0,0,1,800,453a.22.22,0,0,1,.15-.26.21.21,0,0,1,.27.15A.21.21,0,0,1,800.24,453.19Z" transform="translate(-792.73 -431.35)"/><path class="cls-16" d="M800.39,452.92a.15.15,0,0,0,0-.07.23.23,0,0,1-.16.18A.22.22,0,0,1,800,453a.19.19,0,0,0,0,.08.22.22,0,0,0,.27.16A.21.21,0,0,0,800.39,452.92Z" transform="translate(-792.73 -431.35)"/><circle class="cls-14" cx="11.99" cy="13.76" r="0.86"/><path class="cls-15" d="M805.15,445.19a.23.23,0,0,1-.29-.16.23.23,0,1,1,.45-.12A.22.22,0,0,1,805.15,445.19Z" transform="translate(-792.73 -431.35)"/><path class="cls-16" d="M805.31,444.91a.2.2,0,0,0,0-.08.23.23,0,0,1-.17.2.25.25,0,0,1-.25-.09.28.28,0,0,0,0,.09.23.23,0,0,0,.29.16A.22.22,0,0,0,805.31,444.91Z" transform="translate(-792.73 -431.35)"/><path class="cls-15" d="M804.39,445a.19.19,0,0,1-.22-.13.18.18,0,0,1,.35-.1A.19.19,0,0,1,804.39,445Z" transform="translate(-792.73 -431.35)"/><path class="cls-16" d="M804.52,444.77a.09.09,0,0,0,0-.06.2.2,0,0,1-.13.16.18.18,0,0,1-.19-.07s0,.05,0,.07a.19.19,0,0,0,.22.13A.19.19,0,0,0,804.52,444.77Z" transform="translate(-792.73 -431.35)"/><path class="cls-15" d="M804.63,445.72a.22.22,0,1,1-.12-.42.21.21,0,0,1,.27.15A.21.21,0,0,1,804.63,445.72Z" transform="translate(-792.73 -431.35)"/><path class="cls-16" d="M804.78,445.45a.15.15,0,0,0,0-.07.21.21,0,0,1-.16.18.22.22,0,0,1-.24-.08.28.28,0,0,0,0,.09.22.22,0,0,0,.27.15A.21.21,0,0,0,804.78,445.45Z" transform="translate(-792.73 -431.35)"/><circle class="cls-17" cx="8.19" cy="15.52" r="0.77"/><path class="cls-18" d="M801.59,450.67a1.67,1.67,0,0,0-2-.05l-.24-.34a2.07,2.07,0,0,1,2.5.06Z" transform="translate(-792.73 -431.35)"/><path class="cls-19" d="M801.75,450.47l.1-.13a2.07,2.07,0,0,0-2.5-.06l.1.14A2.07,2.07,0,0,1,801.75,450.47Z" transform="translate(-792.73 -431.35)"/><path class="cls-18" d="M806.63,451.3a1.51,1.51,0,0,0-2.14.33l-.37-.26a2,2,0,0,1,2.79-.45Z" transform="translate(-792.73 -431.35)"/><path class="cls-19" d="M806.8,451.06l.11-.14a2,2,0,0,0-2.79.45l.14.1A2,2,0,0,1,806.8,451.06Z" transform="translate(-792.73 -431.35)"/><path class="cls-18" d="M803.61,445.25a1.6,1.6,0,0,0,2,1.15l.13.44a2.05,2.05,0,0,1-2.56-1.48Z" transform="translate(-792.73 -431.35)"/><path class="cls-19" d="M803.32,445.32l-.16,0a2.05,2.05,0,0,0,2.56,1.48l-.05-.16A2.06,2.06,0,0,1,803.32,445.32Z" transform="translate(-792.73 -431.35)"/><path class="cls-18" d="M797.28,453.54a1.31,1.31,0,0,0,.86-1.67l.43-.15a1.77,1.77,0,0,1-1.15,2.26Z" transform="translate(-792.73 -431.35)"/><path class="cls-19" d="M797.37,453.8l0,.18a1.77,1.77,0,0,0,1.15-2.26l-.18.06A1.76,1.76,0,0,1,797.37,453.8Z" transform="translate(-792.73 -431.35)"/><circle class="cls-20" cx="8.38" cy="15.27" r="0.26"/><path class="cls-16" d="M798,449.13a1,1,0,0,1,.45.22.89.89,0,0,1,.26.43.94.94,0,0,1,0,.5.82.82,0,0,1-.28.41,1.23,1.23,0,0,1-.54.25l-.49.1c.06.23.12.46.19.69l-.57.08-.66-2.58a6.22,6.22,0,0,0,1.05-.1A2,2,0,0,1,798,449.13Zm.08,1.15a.35.35,0,0,0,0-.35.41.41,0,0,0-.21-.28.64.64,0,0,0-.42,0l-.46.07c.07.29.15.59.23.88l.46-.08A.52.52,0,0,0,798.12,450.28Z" transform="translate(-792.73 -431.35)"/><path class="cls-16" d="M799,449a.28.28,0,0,1-.12-.42.35.35,0,0,1,.22-.17.42.42,0,0,1,.27,0,.34.34,0,0,1,.15.18.32.32,0,0,1,0,.25.35.35,0,0,1-.22.17A.29.29,0,0,1,799,449Zm.06.36.55-.19q.25.93.51,1.83l-.55.2Z" transform="translate(-792.73 -431.35)"/><path class="cls-16" d="M802,449.78c0,.13.07.27.11.4l-1.68.67-.09-.32c.22-.49.44-1,.65-1.47l-.93.37L800,449c.54-.2,1.08-.42,1.62-.64l.09.32c-.22.49-.44,1-.65,1.47Z" transform="translate(-792.73 -431.35)"/><path class="cls-16" d="M803.91,449.12l.12.42c-.56.15-1.12.35-1.68.56l-.09-.32c.22-.49.43-1,.65-1.45l-.93.35-.12-.41c.54-.21,1.08-.41,1.62-.59l.09.33-.65,1.43C803.25,449.32,803.58,449.21,803.91,449.12Z" transform="translate(-792.73 -431.35)"/><path class="cls-16" d="M805.41,447.44a1,1,0,0,1,.41.64c.09.37.19.75.29,1.13l-.51,0-.07-.24c0,.19-.22.3-.5.35a1,1,0,0,1-.39,0,.71.71,0,0,1-.3-.15.53.53,0,0,1-.16-.27.52.52,0,0,1,.08-.47.93.93,0,0,1,.57-.28l.43-.08a.39.39,0,0,0-.18-.26.45.45,0,0,0-.35,0,1,1,0,0,0-.28.11.82.82,0,0,0-.22.19l-.29-.33a1.24,1.24,0,0,1,.32-.27,1.52,1.52,0,0,1,.42-.16A.92.92,0,0,1,805.41,447.44Zm-.11,1.4a.3.3,0,0,0,.1-.22l0-.19-.38.05c-.22,0-.31.14-.27.29a.22.22,0,0,0,.13.15.44.44,0,0,0,.24,0A.45.45,0,0,0,805.3,448.84Z" transform="translate(-792.73 -431.35)"/><path class="cls-4" d="M810.53,456h0a.3.3,0,0,1-.37-.21l-.1-.37a1.05,1.05,0,0,1,.74-1.3l1.12-.31a.35.35,0,0,1,.43.24h0a.35.35,0,0,1-.25.43l-1.12.3a.38.38,0,0,0-.26.46l.08.28A.4.4,0,0,1,810.53,456Z" transform="translate(-792.73 -431.35)"/></g></svg>