<svg id="Layer_1" data-name="Layer 1" xmlns="http://www.w3.org/2000/svg" xmlns:xlink="http://www.w3.org/1999/xlink" viewBox="0 0 1638.7 768.9"><defs><style>.cls-1{fill:none;}.cls-2{clip-path:url(#clip-path);}.cls-3{fill:url(#linear-gradient);}.cls-4{opacity:0.15;}.cls-5{fill:#fff;}</style><clipPath id="clip-path" transform="translate(109.76)"><rect class="cls-1" y="0.42" width="1440" height="767.58"/></clipPath><linearGradient id="linear-gradient" x1="829.76" y1="-415.85" x2="829.76" y2="675.75" gradientUnits="userSpaceOnUse"><stop offset="0.08" stop-color="#7a49c8"/><stop offset="0.12" stop-color="#804fc3"/><stop offset="0.49" stop-color="#ad7d9b"/><stop offset="0.77" stop-color="#c99a81"/><stop offset="0.93" stop-color="#d3a578"/></linearGradient></defs><g id="A_lucht" data-name="A lucht"><g class="cls-2"><g id="A_lucht-2" data-name="A lucht"><rect class="cls-3" x="109.76" width="1440" height="768.9"/><g class="cls-4"><polygon class="cls-5" points="1635.84 286.91 1.26 281.01 0 366.87 1635.47 312.22 1635.84 286.91"/><polygon class="cls-5" points="1592.14 58.63 338.6 8.67 1592.42 39.52 1592.14 58.63"/><path class="cls-5" d="M1152.61,111.08l376.16-8,.16-11.4C1154.7,94,84.08,100.21-105.85,99.19l-.56,38.57,1259-26.68" transform="translate(109.76)"/><polygon class="cls-5" points="1637.8 153.34 3.02 160.38 3.01 160.93 1637.46 176.34 1637.8 153.34"/><polygon class="cls-5" points="1636.96 210.15 1.97 232.26 1.48 265.58 1636.83 219.32 1636.96 210.15"/><polygon class="cls-5" points="1636.1 269.36 2.51 195.56 2.5 196.3 1635.78 291.11 1636.1 269.36"/><polygon class="cls-5" points="2.73 180.31 2.24 213.61 1296.72 192.43 2.73 180.31"/><polygon class="cls-5" points="4.79 39.15 4.34 70.11 1405.9 83.24 4.79 39.15"/></g><rect class="cls-1" x="109.76" width="1440" height="768"/></g></g></g></svg>