<svg xmlns="http://www.w3.org/2000/svg" xmlns:xlink="http://www.w3.org/1999/xlink" viewBox="0 0 285.02 285.02"><defs><style>.cls-1{isolation:isolate;}.cls-2{fill:#fff;opacity:0.05;mix-blend-mode:screen;}.cls-3{fill:#fdeca2;}.cls-4{fill:#fdf2c3;}.cls-5{fill:#edd987;}.cls-6{fill:url(#radial-gradient);}</style><radialGradient id="radial-gradient" cx="142.51" cy="142.51" r="142.51" gradientUnits="userSpaceOnUse"><stop offset="0" stop-color="#fbca15" stop-opacity="0.3"/><stop offset="0.37" stop-color="#fde17c" stop-opacity="0.17"/><stop offset="0.77" stop-color="#fef7db" stop-opacity="0.05"/><stop offset="0.99" stop-color="#fff" stop-opacity="0"/></radialGradient></defs><g class="cls-1"><g id="Layer_1" data-name="Layer 1"><path class="cls-2" d="M556.06,431.91a62,62,0,1,1-62-62.05A62,62,0,0,1,556.06,431.91Z" transform="translate(-351.5 -289.4)"/><path class="cls-2" d="M542.17,431.91A48.16,48.16,0,1,1,494,383.75,48.16,48.16,0,0,1,542.17,431.91Z" transform="translate(-351.5 -289.4)"/><circle class="cls-3" cx="142.51" cy="142.51" r="37.19"/><path class="cls-4" d="M461.76,433.91a37.17,37.17,0,0,0,20.77,33.38,37.2,37.2,0,1,1,27.9-68.76,37.21,37.21,0,0,0-48.67,35.38Z" transform="translate(-351.5 -289.4)"/><path class="cls-5" d="M472.82,410.39a2.18,2.18,0,0,0,.46.45c1.18.86,2.82.42,4-.12a11.16,11.16,0,0,0,5.21-4.3,3,3,0,0,0,.19-2.92c-1.11-1.81-4.24-1.46-5.88-.76a8.15,8.15,0,0,0-4.36,4.64A3.29,3.29,0,0,0,472.82,410.39Z" transform="translate(-351.5 -289.4)"/><path class="cls-5" d="M486.42,403.6a.8.8,0,0,0,.21.2,1.88,1.88,0,0,0,1.85-.05,5.16,5.16,0,0,0,2.4-2,1.37,1.37,0,0,0,.08-1.34c-.51-.83-1.94-.67-2.69-.35a3.68,3.68,0,0,0-2,2.13A1.49,1.49,0,0,0,486.42,403.6Z" transform="translate(-351.5 -289.4)"/><path class="cls-5" d="M467.44,439c2.07,2.18,5.21,3.81,8,2.81a7.84,7.84,0,0,0,4.17-4.36,14.9,14.9,0,0,0-.68-13.64c-2.53-4.19-7.89-6.67-12.54-4.26-3.72,1.94-3.7,7.93-3,11.43A16,16,0,0,0,467.44,439Z" transform="translate(-351.5 -289.4)"/><path class="cls-5" d="M506.25,412.93a4.31,4.31,0,0,0-.4,2.39,3.71,3.71,0,0,0,1.69,2.45,6,6,0,0,0,2.9.85,7.09,7.09,0,0,0,5.66-2.22,5.31,5.31,0,0,0,.81-5.85C514.27,405.69,507.9,409.25,506.25,412.93Z" transform="translate(-351.5 -289.4)"/><path class="cls-5" d="M490.81,449.19a12.62,12.62,0,0,0,7.79,2,6.3,6.3,0,0,0,3.76-1.38c1.89-1.71,1.73-5,.12-6.93-2.63-3.24-8.38-3.89-11.92-1.89C487.21,442.85,487.87,447.27,490.81,449.19Z" transform="translate(-351.5 -289.4)"/><path class="cls-5" d="M531.2,431.91a37.19,37.19,0,0,1-68.86,19.5,37.2,37.2,0,0,0,59.58-44.09A37,37,0,0,1,531.2,431.91Z" transform="translate(-351.5 -289.4)"/><circle class="cls-6" cx="142.51" cy="142.51" r="142.51"/></g></g></svg>