<svg id="Layer_1" data-name="Layer 1" xmlns="http://www.w3.org/2000/svg" xmlns:xlink="http://www.w3.org/1999/xlink" viewBox="0 0 285.02 285.02"><defs><style>.cls-1{fill:url(#radial-gradient);}.cls-2{fill:#fff;opacity:0.05;}.cls-3{fill:#f9ba2f;}.cls-4{fill:#f9c143;}</style><radialGradient id="radial-gradient" cx="142.51" cy="142.51" r="142.51" gradientUnits="userSpaceOnUse"><stop offset="0" stop-color="#fbca15" stop-opacity="0.3"/><stop offset="0.37" stop-color="#fde17c" stop-opacity="0.17"/><stop offset="0.77" stop-color="#fef7db" stop-opacity="0.05"/><stop offset="0.99" stop-color="#fff" stop-opacity="0"/></radialGradient></defs><circle class="cls-1" cx="142.51" cy="142.51" r="142.51"/><path class="cls-2" d="M955,433.75a62.17,62.17,0,1,1-124.33,0c0-.74,0-1.48,0-2.22a62.16,62.16,0,0,1,124.24,0C955,432.27,955,433,955,433.75Z" transform="translate(-750.36 -291.25)"/><path class="cls-2" d="M941.5,433.75a48.63,48.63,0,1,1-97.26,0q0-.87,0-1.74a48.63,48.63,0,0,1,97.19,0C941.48,432.59,941.5,433.17,941.5,433.75Z" transform="translate(-750.36 -291.25)"/><path class="cls-3" d="M929.7,433.75a36.83,36.83,0,1,1-73.66,0c0-.44,0-.88,0-1.32a36.83,36.83,0,0,1,73.61,0Q929.7,433.09,929.7,433.75Z" transform="translate(-750.36 -291.25)"/><circle class="cls-4" cx="142.51" cy="142.51" r="26.05"/><path class="cls-3" d="M889.4,448.6a3.7,3.7,0,1,1-3.69-3.69A3.69,3.69,0,0,1,889.4,448.6Z" transform="translate(-750.36 -291.25)"/><circle class="cls-3" cx="145.98" cy="160.6" r="2.41"/><path class="cls-4" d="M869.23,448.6a2.41,2.41,0,1,1-2.41-2.41A2.41,2.41,0,0,1,869.23,448.6Z" transform="translate(-750.36 -291.25)"/><path class="cls-3" d="M913.82,424.71a7.24,7.24,0,1,1-7.24-7.23A7.24,7.24,0,0,1,913.82,424.71Z" transform="translate(-750.36 -291.25)"/><path class="cls-3" d="M890.76,421.47a3.24,3.24,0,1,1-3.24-3.24A3.24,3.24,0,0,1,890.76,421.47Z" transform="translate(-750.36 -291.25)"/><path class="cls-3" d="M898,413.63a2,2,0,1,1-2-2A2,2,0,0,1,898,413.63Z" transform="translate(-750.36 -291.25)"/><path class="cls-4" d="M920,455.41a3.57,3.57,0,1,1-3.57-3.57A3.56,3.56,0,0,1,920,455.41Z" transform="translate(-750.36 -291.25)"/><circle class="cls-4" cx="112.9" cy="150.1" r="3.56"/><circle class="cls-4" cx="158.98" cy="167.66" r="2.09"/></svg>